# xmcd CD database file
#
# Track frame offsets:
#	150
#	21431
#	33695
#	61743
#	91128
#	119982
#	146309
#	159908
#	181755
#	199673
#	216118
#	239718
#	269126
#	291385
#
# Disc length: 4136 seconds
#
# Revision: 0
# Processed by: cddbd v1.5.1PL0 Copyright (c) Steve Scherf et al.
# Submitted via: CDex 1.50beta9
#
DISCID=d810260e
DTITLE=diverse - caribe v aniversario
DYEAR=1900
DGENRE=Salsa
TTITLE0=regalame tu encanto
TTITLE1=el guajiro de canagua
TTITLE2=amame como soy
TTITLE3=necesito una nina
TTITLE4=silvia elena
TTITLE5=despues que te casaste
TTITLE6=pare cochero
TTITLE7=se solto la loca
TTITLE8=la mulata
TTITLE9=fiel enamorado
TTITLE10=bonito y sabroso
TTITLE11=pegaito pegaito
TTITLE12=conga de los refranes
TTITLE13=esto te pone la cabeza mala
EXTD=
EXTT0=
EXTT1=
EXTT2=
EXTT3=
EXTT4=
EXTT5=
EXTT6=
EXTT7=
EXTT8=
EXTT9=
EXTT10=
EXTT11=
EXTT12=
EXTT13=
PLAYORDER=
